<svg width="41" height="45" viewBox="0 0 41 45" fill="none" xmlns="http://www.w3.org/2000/svg">
<path d="M5.33441 27.5005C4.12007 28.1944 3.5129 29.1703 3.5129 30.428C3.5129 31.6423 3.85986 32.6398 4.55377 33.4204C5.24767 34.1577 6.02832 34.5263 6.8957 34.5263C7.80645 34.5263 8.99911 34.0927 10.4737 33.2253C11.9482 32.3145 14.3335 29.257 17.6296 24.0527C10.2134 23.272 5.72473 22.4047 4.16344 21.4505C1.38781 19.8025 0 17.8726 0 15.6607C0 13.4056 0.672222 11.5624 2.01667 10.1312C3.40448 8.69999 4.90072 7.9844 6.50538 7.9844C8.11004 7.9844 9.47617 8.30967 10.6038 8.96021L9.04248 11.8226C8.3052 11.4323 7.52456 11.2371 6.70054 11.2371C5.9199 11.2371 5.13925 11.584 4.3586 12.278C3.62133 12.9719 3.25269 13.9477 3.25269 15.2054C3.25269 16.4631 4.14176 17.6124 5.91989 18.6532C7.7414 19.6941 11.6446 20.4747 17.6296 20.9952C14.6371 15.2271 13.1409 11.0419 13.1409 8.43978C13.1409 5.79426 13.8131 3.79927 15.1575 2.45483C16.5453 1.06701 17.9765 0.373108 19.4511 0.373108C21.9665 0.373108 23.8964 1.06701 25.2409 2.45483C26.5853 3.79927 27.2359 5.46899 27.1925 7.46397H23.9398C23.9398 6.37974 23.5712 5.46899 22.8339 4.73171C22.0966 3.99444 21.2075 3.6258 20.1667 3.6258C19.1258 3.6258 18.2367 3.99444 17.4995 4.73171C16.7622 5.46899 16.3936 6.77006 16.3936 8.63494C16.3936 10.4564 17.738 14.1645 20.4269 19.7591C24.2867 13.8176 27.3443 10.1529 29.5995 8.76505C30.8138 8.07114 31.9414 7.72419 32.9823 7.72419C34.8905 7.72419 36.5819 8.41809 38.0565 9.80591C39.531 11.1937 40.2683 12.6466 40.2683 14.1645C40.2683 17.1136 39.1624 19.2821 36.9506 20.6699L35.2592 17.9376C36.4301 17.2004 37.0156 16.2245 37.0156 15.0102C37.0156 13.7959 36.6687 12.8201 35.9747 12.0828C35.1941 11.3455 34.3701 10.9769 33.5027 10.9769C30.4669 10.9769 26.8238 14.4681 22.5737 21.4505C29.773 22.1011 34.24 22.9251 35.9747 23.9226C38.9239 25.5272 40.3984 27.7174 40.3984 30.493C40.3984 32.3145 39.7262 33.9409 38.3817 35.372C37.0807 36.8032 35.5844 37.5188 33.893 37.5188C32.245 37.5188 30.9006 37.1936 29.8597 36.543L31.421 33.6806C32.1149 34.071 32.8738 34.2661 33.6979 34.2661C34.5219 34.2661 35.3025 33.9192 36.0398 33.2253C36.7771 32.5314 37.1457 31.5556 37.1457 30.2979C37.1457 28.9968 36.3 27.8692 34.6086 26.9151C32.9606 25.9176 28.9706 25.1152 22.6387 24.5081C25.6746 30.9267 27.1925 35.2636 27.1925 37.5188C27.1925 39.774 26.4986 41.5955 25.1108 42.9833C23.7663 44.3278 22.3568 45 20.8823 45C18.4102 45 16.4803 44.3278 15.0925 42.9833C13.748 41.5955 13.0975 39.9258 13.1409 37.9742H16.3936C16.3936 39.0151 16.7622 39.9041 17.4995 40.6414C18.2367 41.3787 19.1258 41.7473 20.1667 41.7473C21.2075 41.7473 22.0966 41.4004 22.8339 40.7065C23.5712 39.9692 23.9398 38.6464 23.9398 36.7382C23.9398 34.8299 22.6387 31.1652 20.0366 25.7441C15.8298 32.7699 12.2084 36.6948 9.17258 37.5188C8.47868 37.6923 7.7414 37.779 6.96076 37.779C5.22599 37.779 3.6647 37.0851 2.27688 35.6973C0.889068 34.3095 0.216846 32.8349 0.260215 31.2737C0.260215 28.3246 1.38781 26.1561 3.64301 24.7683L5.33441 27.5005Z" fill="#FAFAFA"/>
</svg>
