<svg width="218" height="48" viewBox="0 0 218 48" fill="none" xmlns="http://www.w3.org/2000/svg">
<path d="M5.77191 30.5005C4.55757 31.1944 3.9504 32.1702 3.9504 33.428C3.9504 34.6423 4.29736 35.6398 4.99127 36.4204C5.68517 37.1577 6.46582 37.5263 7.3332 37.5263C8.24395 37.5263 9.43661 37.0926 10.9112 36.2253C12.3857 35.3145 14.771 32.257 18.0671 27.0527C10.6509 26.272 6.16223 25.4046 4.60094 24.4505C1.82531 22.8025 0.4375 20.8726 0.4375 18.6607C0.4375 16.4055 1.10972 14.5624 2.45417 13.1312C3.84198 11.7 5.33822 10.9844 6.94288 10.9844C8.54754 10.9844 9.91367 11.3097 11.0413 11.9602L9.47998 14.8226C8.7427 14.4322 7.96206 14.2371 7.13804 14.2371C6.3574 14.2371 5.57675 14.584 4.7961 15.2779C4.05883 15.9719 3.69019 16.9477 3.69019 18.2054C3.69019 19.4631 4.57926 20.6124 6.35739 21.6532C8.1789 22.6941 12.0821 23.4747 18.0671 23.9952C15.0746 18.227 13.5784 14.0419 13.5784 11.4398C13.5784 8.79425 14.2506 6.79927 15.595 5.45482C16.9828 4.06701 18.414 3.3731 19.8886 3.3731C22.404 3.3731 24.3339 4.06701 25.6784 5.45482C27.0228 6.79927 27.6734 8.46898 27.63 10.464H24.3773C24.3773 9.37973 24.0087 8.46898 23.2714 7.73171C22.5341 6.99443 21.645 6.62579 20.6042 6.62579C19.5633 6.62579 18.6742 6.99443 17.937 7.73171C17.1997 8.46898 16.8311 9.77006 16.8311 11.6349C16.8311 13.4564 18.1755 17.1645 20.8644 22.7591C24.7242 16.8176 27.7818 13.1529 30.037 11.765C31.2513 11.0711 32.3789 10.7242 33.4198 10.7242C35.328 10.7242 37.0194 11.4181 38.494 12.8059C39.9685 14.1937 40.7058 15.6466 40.7058 17.1645C40.7058 20.1136 39.5999 22.2821 37.3881 23.6699L35.6967 20.9376C36.8676 20.2003 37.4531 19.2245 37.4531 18.0102C37.4531 16.7959 37.1062 15.8201 36.4122 15.0828C35.6316 14.3455 34.8076 13.9769 33.9402 13.9769C30.9044 13.9769 27.2613 17.4681 23.0112 24.4505C30.2105 25.1011 34.6775 25.9251 36.4122 26.9226C39.3614 28.5272 40.8359 30.7174 40.8359 33.493C40.8359 35.3145 40.1637 36.9409 38.8192 38.372C37.5182 39.8032 36.0219 40.5188 34.3305 40.5188C32.6825 40.5188 31.3381 40.1935 30.2972 39.543L31.8585 36.6806C32.5524 37.071 33.3114 37.2661 34.1354 37.2661C34.9594 37.2661 35.74 36.9192 36.4773 36.2253C37.2146 35.5314 37.5832 34.5556 37.5832 33.2978C37.5832 31.9968 36.7375 30.8692 35.0461 29.915C33.3981 28.9176 29.4081 28.1152 23.0762 27.5081C26.1121 33.9267 27.63 38.2636 27.63 40.5188C27.63 42.774 26.9361 44.5955 25.5483 45.9833C24.2038 47.3278 22.7943 48 21.3198 48C18.8477 48 16.9178 47.3278 15.53 45.9833C14.1855 44.5955 13.535 42.9258 13.5784 40.9742H16.8311C16.8311 42.0151 17.1997 42.9041 17.937 43.6414C18.6742 44.3787 19.5633 44.7473 20.6042 44.7473C21.645 44.7473 22.5341 44.4004 23.2714 43.7065C24.0087 42.9692 24.3773 41.6464 24.3773 39.7382C24.3773 37.8299 23.0762 34.1652 20.4741 28.7441C16.2673 35.7699 12.6459 39.6948 9.61008 40.5188C8.91618 40.6923 8.1789 40.779 7.39826 40.779C5.66349 40.779 4.1022 40.0851 2.71438 38.6973C1.32657 37.3095 0.654346 35.8349 0.697715 34.2737C0.697715 31.3245 1.82531 29.1561 4.08051 27.7683L5.77191 30.5005Z" fill="#FAFAFA"/>
<path d="M48.6381 25.55C48.6381 22.4811 49.241 19.7959 50.4466 17.4942C51.6888 15.156 53.3876 13.3658 55.5431 12.1237C57.7352 10.845 60.2013 10.2056 62.9413 10.2056C65.791 10.2056 68.2388 10.8632 70.2847 12.1785C72.3672 13.4937 73.8651 15.1743 74.7785 17.2202V10.644H78.6146V40.5657H74.7785V33.9347C73.8286 35.9806 72.3124 37.6794 70.2299 39.0312C68.184 40.3465 65.7362 41.0041 62.8865 41.0041C60.183 41.0041 57.7352 40.3647 55.5431 39.086C53.3876 37.8073 51.6888 35.9989 50.4466 33.6607C49.241 31.3225 48.6381 28.6189 48.6381 25.55ZM74.7785 25.6048C74.7785 23.1936 74.2853 21.0746 73.2988 19.2479C72.3124 17.4211 70.9606 16.0146 69.2435 15.0281C67.5629 14.0417 65.6997 13.5485 63.6538 13.5485C61.5348 13.5485 59.635 14.0234 57.9544 14.9733C56.2738 15.9232 54.9403 17.3115 53.9539 19.1383C53.004 20.9284 52.529 23.0657 52.529 25.55C52.529 27.9978 53.004 30.1534 53.9539 32.0166C54.9403 33.8433 56.2738 35.2499 57.9544 36.2363C59.635 37.1862 61.5348 37.6612 63.6538 37.6612C65.6997 37.6612 67.5629 37.168 69.2435 36.1815C70.9606 35.1951 72.3124 33.7885 73.2988 31.9618C74.2853 30.1351 74.7785 28.0161 74.7785 25.6048Z" fill="#FAFAFA"/>
<path d="M101.401 10.096C104.982 10.096 107.904 11.2103 110.17 13.4389C112.435 15.631 113.567 18.8277 113.567 23.0292V40.5657H109.786V23.4676C109.786 20.216 108.964 17.7317 107.32 16.0146C105.712 14.2975 103.502 13.4389 100.689 13.4389C97.8027 13.4389 95.501 14.3523 93.7839 16.179C92.0668 18.0057 91.2082 20.691 91.2082 24.2348V40.5657H87.3721V10.644H91.2082V15.7406C92.1581 13.9138 93.5282 12.5255 95.3184 11.5756C97.1085 10.5892 99.1362 10.096 101.401 10.096Z" fill="#FAFAFA"/>
<path d="M135.149 41.0041C132.336 41.0041 129.797 40.383 127.531 39.1408C125.303 37.8621 123.531 36.0719 122.216 33.7703C120.937 31.4321 120.298 28.7103 120.298 25.6048C120.298 22.4994 120.955 19.7959 122.27 17.4942C123.586 15.156 125.376 13.3658 127.641 12.1237C129.906 10.845 132.445 10.2056 135.258 10.2056C138.072 10.2056 140.611 10.845 142.876 12.1237C145.177 13.3658 146.968 15.156 148.246 17.4942C149.562 19.7959 150.219 22.4994 150.219 25.6048C150.219 28.6737 149.562 31.3773 148.246 33.7155C146.931 36.0537 145.123 37.8621 142.821 39.1408C140.519 40.383 137.962 41.0041 135.149 41.0041ZM135.149 37.6612C137.122 37.6612 138.948 37.2228 140.629 36.3459C142.31 35.4326 143.661 34.0808 144.684 32.2906C145.744 30.4639 146.274 28.2353 146.274 25.6048C146.274 22.9744 145.762 20.764 144.739 18.9739C143.716 17.1471 142.364 15.7954 140.684 14.9185C139.003 14.0052 137.176 13.5485 135.204 13.5485C133.231 13.5485 131.404 14.0052 129.723 14.9185C128.043 15.7954 126.691 17.1471 125.668 18.9739C124.682 20.764 124.188 22.9744 124.188 25.6048C124.188 28.2353 124.682 30.4639 125.668 32.2906C126.691 34.0808 128.025 35.4326 129.669 36.3459C131.349 37.2228 133.176 37.6612 135.149 37.6612Z" fill="#FAFAFA"/>
<path d="M162.199 13.8773V32.455C162.199 34.2817 162.546 35.5422 163.24 36.2363C163.934 36.9305 165.158 37.2776 166.912 37.2776H170.419V40.5657H166.309C163.605 40.5657 161.596 39.9446 160.281 38.7024C158.966 37.4237 158.308 35.3412 158.308 32.455V13.8773H154.143V10.644H158.308V3.1362H162.199V10.644H170.419V13.8773H162.199Z" fill="#FAFAFA"/>
<path d="M174.992 25.55C174.992 22.4811 175.595 19.7959 176.801 17.4942C178.043 15.156 179.742 13.3658 181.897 12.1237C184.089 10.845 186.555 10.2056 189.295 10.2056C192.145 10.2056 194.593 10.8632 196.639 12.1785C198.721 13.4937 200.219 15.1743 201.132 17.2202V10.644H204.969V40.5657H201.132V33.9347C200.183 35.9806 198.666 37.6794 196.584 39.0312C194.538 40.3465 192.09 41.0041 189.24 41.0041C186.537 41.0041 184.089 40.3647 181.897 39.086C179.742 37.8073 178.043 35.9989 176.801 33.6607C175.595 31.3225 174.992 28.6189 174.992 25.55ZM201.132 25.6048C201.132 23.1936 200.639 21.0746 199.653 19.2479C198.666 17.4211 197.315 16.0146 195.597 15.0281C193.917 14.0417 192.054 13.5485 190.008 13.5485C187.889 13.5485 185.989 14.0234 184.308 14.9733C182.628 15.9232 181.294 17.3115 180.308 19.1383C179.358 20.9284 178.883 23.0657 178.883 25.55C178.883 27.9978 179.358 30.1534 180.308 32.0166C181.294 33.8433 182.628 35.2499 184.308 36.2363C185.989 37.1862 187.889 37.6612 190.008 37.6612C192.054 37.6612 193.917 37.168 195.597 36.1815C197.315 35.1951 198.666 33.7885 199.653 31.9618C200.639 30.1351 201.132 28.0161 201.132 25.6048Z" fill="#FAFAFA"/>
<path d="M217.562 10.644V40.5657H213.726V10.644H217.562ZM217.562 6.46465L213.726 8.34235V6.46465L217.562 0V6.46465Z" fill="#FAFAFA"/>
</svg>